<?xml version="1.0" standalone="no"?>
<!DOCTYPE svg PUBLIC "-//W3C//DTD SVG 20010904//EN"
 "http://www.w3.org/TR/2001/REC-SVG-20010904/DTD/svg10.dtd">
<svg version="1.0" xmlns="http://www.w3.org/2000/svg"
 width="634.000000pt" height="393.000000pt" viewBox="0 0 634.000000 393.000000"
 preserveAspectRatio="xMidYMid meet">

<g transform="translate(0.000000,393.000000) scale(0.100000,-0.100000)"
fill="#000000" stroke="none">
<path d="M3275 3430 c-148 -86 -463 -268 -700 -404 -236 -136 -434 -251 -438
-256 -5 -4 58 -122 139 -261 81 -140 174 -301 207 -359 33 -58 62 -107 64
-109 7 -9 78 39 75 51 -2 7 -82 148 -177 313 -96 165 -177 307 -180 316 -5 13
14 28 82 67 48 27 207 118 353 202 225 130 793 456 811 466 3 1 49 -73 103
-167 54 -93 100 -169 103 -169 19 0 73 45 69 56 -8 20 -226 398 -234 405 -4 3
-128 -65 -277 -151z"/>
<path d="M2203 3497 l-143 -82 0 -52 c0 -29 3 -53 8 -52 4 0 63 33 132 73 69
41 128 71 132 67 3 -3 48 -78 98 -166 51 -88 96 -164 100 -168 10 -11 81 35
76 48 -18 46 -237 410 -247 412 -8 1 -78 -35 -156 -80z"/>
<path d="M4275 3321 c-82 -48 -324 -188 -536 -310 -213 -122 -395 -228 -405
-235 -17 -13 -9 -28 101 -217 65 -112 159 -274 209 -359 49 -85 91 -157 93
-159 4 -5 83 30 83 37 0 3 -27 51 -59 106 -201 342 -312 540 -307 550 2 6 225
137 495 291 l491 280 0 53 c0 28 -3 52 -7 51 -5 0 -75 -40 -158 -88z"/>
<path d="M3902 2878 c-18 -11 -31 -26 -28 -34 3 -7 86 -153 186 -325 144 -249
178 -315 168 -324 -7 -7 -60 -39 -118 -72 -58 -33 -256 -146 -440 -253 -184
-106 -413 -238 -508 -293 -145 -83 -176 -97 -186 -86 -7 8 -52 84 -101 169
-48 85 -89 156 -91 158 -2 3 -47 -19 -72 -36 -10 -7 17 -60 108 -218 67 -115
124 -211 126 -214 3 -2 13 1 22 6 20 13 755 437 1132 654 146 83 266 153 268
155 5 5 -414 729 -424 732 -5 1 -24 -7 -42 -19z"/>
<path d="M2718 2872 c-16 -10 -28 -21 -28 -25 0 -5 55 -104 122 -220 67 -117
148 -257 180 -313 32 -56 58 -105 58 -110 0 -5 -80 -55 -178 -111 -97 -55
-276 -158 -397 -228 -121 -70 -264 -152 -317 -183 l-98 -56 0 -54 c0 -29 3
-51 8 -49 35 21 464 268 747 430 193 110 354 203 358 207 10 9 -2 33 -108 215
-45 77 -130 224 -190 328 -59 103 -113 187 -119 186 -6 0 -23 -8 -38 -17z"/>
<path d="M3928 1794 c-16 -8 -28 -20 -28 -26 0 -6 42 -83 93 -172 52 -89 104
-180 117 -203 13 -24 27 -43 31 -43 4 0 71 38 150 84 l144 83 3 52 c2 28 0 51
-4 51 -4 0 -63 -32 -132 -72 -120 -68 -126 -70 -139 -52 -8 10 -53 85 -100
167 -47 81 -91 147 -97 147 -6 -1 -23 -8 -38 -16z"/>
<path d="M727 884 c-4 -4 -7 -25 -7 -46 l0 -38 45 0 45 0 0 -257 c0 -240 -1
-260 -20 -291 -54 -88 -160 -43 -160 68 0 29 -1 30 -51 30 l-50 0 6 -47 c9
-63 43 -132 78 -157 23 -17 44 -21 106 -21 69 0 81 3 113 27 68 52 73 82 73
428 l0 305 -85 3 c-47 1 -89 0 -93 -4z"/>
<path d="M1957 879 c-125 -21 -170 -167 -97 -316 27 -55 46 -76 116 -131 112
-88 139 -148 93 -206 -16 -21 -29 -26 -64 -26 -50 0 -65 14 -72 70 l-6 40 -48
0 -48 0 6 -38 c14 -95 61 -143 148 -150 144 -12 224 85 184 225 -13 49 -55 98
-158 182 -63 52 -90 106 -91 177 0 37 5 56 20 72 59 63 149 17 150 -75 0 -32
1 -33 46 -33 l46 0 -4 53 c-5 62 -24 103 -58 129 -31 23 -111 36 -163 27z"/>
<path d="M2370 872 c-90 -45 -124 -162 -117 -402 4 -162 17 -224 59 -283 42
-58 135 -78 198 -40 80 47 119 228 100 456 -13 166 -47 242 -121 271 -51 20
-76 20 -119 -2z m98 -77 c40 -28 56 -112 56 -290 0 -124 -4 -173 -17 -217 -31
-103 -100 -118 -140 -30 -20 43 -22 63 -22 242 0 165 3 202 18 242 26 67 60
84 105 53z"/>
<path d="M4465 881 l-40 -6 0 -280 0 -280 74 -3 c186 -7 291 96 291 288 0 155
-73 248 -218 279 -29 6 -56 10 -60 10 -4 -1 -25 -5 -47 -8z m122 -92 c70 -26
113 -100 113 -194 0 -64 -23 -127 -56 -157 -25 -22 -87 -48 -114 -48 -19 0
-20 6 -20 205 l0 205 24 0 c14 0 37 -5 53 -11z"/>
<path d="M5733 878 c-53 -11 -96 -58 -119 -130 -14 -43 -18 -105 -22 -335 l-4
-283 46 0 46 0 0 95 0 95 95 0 95 0 0 -95 0 -95 45 0 45 0 0 243 c-1 248 -12
364 -43 423 -36 70 -101 98 -184 82z m86 -97 c31 -31 42 -86 48 -238 l6 -143
-98 0 -98 0 6 143 c3 78 10 158 16 178 22 72 79 101 120 60z"/>
<path d="M3882 860 c-78 -48 -105 -189 -100 -525 l3 -200 42 -3 42 -3 3 93 3
93 92 3 92 3 3 -93 3 -93 43 -3 42 -3 0 254 c0 331 -15 407 -90 471 -41 34
-127 37 -178 6z m131 -78 c29 -32 47 -129 47 -259 l0 -124 -92 3 -93 3 2 131
c2 144 14 207 46 242 25 27 68 29 90 4z"/>
<path d="M990 500 l0 -370 185 0 185 0 0 45 0 45 -140 0 -140 0 0 70 0 70 135
0 135 0 0 45 0 45 -135 0 -135 0 0 170 0 170 140 0 140 0 0 40 0 40 -185 0
-185 0 0 -370z"/>
<path d="M1410 859 c0 -5 28 -119 62 -252 52 -204 63 -260 67 -357 l6 -115 43
-3 42 -3 0 87 c0 75 10 127 70 365 39 153 70 281 70 284 0 3 -20 5 -44 5 l-43
0 -27 -112 c-14 -62 -34 -150 -43 -195 -10 -46 -20 -83 -23 -83 -6 0 -58 211
-82 333 l-11 57 -43 0 c-24 0 -44 -5 -44 -11z"/>
<path d="M2692 503 l3 -368 43 -3 42 -3 1 238 0 238 56 -110 c71 -140 111
-236 127 -305 l12 -55 42 -3 42 -3 0 370 0 371 -42 0 -43 0 2 -237 2 -238 -74
149 c-79 158 -115 252 -115 298 0 27 -2 28 -50 28 l-50 0 2 -367z"/>
<path d="M3414 853 c3 -10 15 -72 26 -138 12 -66 41 -223 66 -349 24 -126 44
-231 44 -233 0 -1 20 -3 45 -3 25 0 45 2 45 5 0 3 13 74 29 158 16 83 46 240
66 347 19 107 38 203 41 213 5 14 -1 17 -40 17 -39 0 -46 -3 -51 -22 -8 -39
-23 -135 -55 -347 -17 -113 -32 -206 -34 -208 -5 -5 -18 73 -56 327 -41 276
-32 250 -86 250 -38 0 -45 -3 -40 -17z"/>
<path d="M4232 503 l3 -368 278 -3 277 -2 0 45 0 45 -230 0 -230 0 0 325 0
325 -50 0 -50 0 2 -367z"/>
<path d="M4860 500 l0 -370 45 0 45 0 0 370 0 370 -45 0 -45 0 0 -370z"/>
<path d="M5004 833 c14 -78 117 -629 124 -663 7 -34 9 -35 52 -35 l45 0 22
115 c70 365 113 597 113 608 0 8 -15 12 -43 12 l-43 0 -32 -202 c-18 -112 -37
-240 -44 -286 -6 -45 -14 -79 -18 -75 -4 4 -26 133 -51 286 l-43 277 -44 0
-44 0 6 -37z"/>
<path d="M5420 500 l0 -370 45 0 45 0 0 370 0 370 -45 0 -45 0 0 -370z"/>
</g>
</svg>
